#!OML:ASF H:\LiuWeirdWalks\Patient Classification 1\Patient 1\Session 1\male.ASF
:FULLY-SPECIFIED
:DEGREES
601
root 1.13297 17.7428 -13.2379 5.30957 -2.99737 2.60594
lowerback 11.0386 -0.378628 -4.9543
upperback 1.91297 -0.906157 3.8654
thorax -4.04424 -0.366783 7.02493
lowerneck -17.4866 3.28187 6.98134
upperneck 16.2709 4.95564 -11.369
head 8.41645 1.64195 -4.38835
rclavicle 2.94201e-014 -1.90833e-014
rhumerus -26.9925 -24.8855 -12.0973
rradius 40.1093
rwrist -6.01436
rhand -20.203 -0.296251
rfingers 7.12502
rthumb 6.14381 -30.1872
lclavicle 2.94201e-014 -1.90833e-014
lhumerus -29.0157 26.5379 28.105
lradius 40.3902
lwrist 7.97191
lhand -17.2098 5.17727
lfingers 7.12502
lthumb 9.03287 34.9639
rfemur -35.0518 -4.12639 8.43067
rtibia 29.6898
rfoot -4.39716 -7.31349
rtoes -10.7574
lfemur 4.4087 -5.71429 -20.9608
ltibia 15.2357
lfoot -11.9781 18.2766
ltoes -16.6395
602
root 1.11608 17.7376 -13.1521 5.37214 -2.75374 2.82853
lowerback 10.9817 -0.406357 -4.88821
upperback 1.90547 -0.928682 3.96106
thorax -4.01652 -0.379072 7.09147
lowerneck -17.4299 3.21154 6.87524
upperneck 16.274 4.92471 -11.5401
head 8.40716 1.6054 -4.43393
rclavicle 8.74653e-015 -1.90833e-014
rhumerus -27.1455 -24.9185 -12.1381
rradius 40.0335
rwrist -6.02264
rhand -20.2069 -0.293886
rfingers 7.12502
rthumb 6.14006 -30.1849
lclavicle 8.74653e-015 -1.90833e-014
lhumerus -28.9238 26.4872 27.9114
lradius 40.4704
lwrist 7.99991
lhand -17.2297 5.14446
lfingers 7.12502
lthumb 9.01365 34.9319
rfemur -34.9803 -3.76908 8.08361
rtibia 29.1681
rfoot -4.30104 -7.2979
rtoes -10.8996
lfemur 4.84063 -5.6733 -21.075
ltibia 14.7582
lfoot -11.8054 17.8247
ltoes -17.1132
603
root 1.09765 17.7306 -13.0637 5.41627 -2.50185 3.05082
lowerback 10.9242 -0.430123 -4.81178
upperback 1.89693 -0.944494 4.06428
thorax -3.99066 -0.388013 7.15925
lowerneck -17.4161 3.14237 6.77527
upperneck 16.2916 4.89666 -11.7289
head 8.41149 1.56729 -4.48667
rclavicle 1.82882e-014 -3.49861e-014
rhumerus -27.3078 -24.9811 -12.1501
rradius 39.9408
rwrist -5.9742
rhand -20.1854 -0.245891
rfingers 7.12502
rthumb 6.16081 -30.1363
lclavicle 1.82882e-014 -3.49861e-014
lhumerus -28.8311 26.4253 27.7069
lradius 40.5709
lwrist 8.05781
lhand -17.2611 5.11304
lfingers 7.12502
lthumb 8.98339 34.9018
rfemur -34.8949 -3.48741 7.79192
rtibia 28.8744
rfoot -4.19472 -7.27522
rtoes -11.045
lfemur 5.23337 -5.61848 -21.1756
ltibia 14.4132
lfoot -11.6664 17.3526
ltoes -17.6613
604
root 1.07785 17.7214 -12.9726 5.43597 -2.24199 3.29279
lowerback 10.8527 -0.450819 -4.74589
upperback 1.89301 -0.957071 4.1702
thorax -3.95243 -0.395779 7.2351
lowerneck -17.3862 3.06082 6.64237
upperneck 16.3249 4.8592 -11.9027
head 8.41596 1.52432 -4.53014
rclavicle -1.94809e-014 -2.54444e-014
rhumerus -27.4836 -25.0352 -12.1388
rradius 39.8521
rwrist -5.90929
rhand -20.1559 -0.196894
rfingers 7.12502
rthumb 6.18931 -30.0865
lclavicle -1.94809e-014 -2.54444e-014
lhumerus -28.737 26.3494 27.4907
lradius 40.6821
lwrist 8.10489
lhand -17.2983 5.07795
lfingers 7.12502
lthumb 8.94752 34.8682
rfemur -34.7859 -3.28572 7.52917
rtibia 28.8042
rfoot -4.05853 -7.18411
rtoes -11.2178
lfemur 5.59133 -5.55128 -21.2889
ltibia 14.2084
lfoot -11.5685 16.8717
ltoes -18.2708
605
root 1.05639 17.7103 -12.8789 5.4385 -1.9668 3.54341
lowerback 10.7676 -0.47259 -4.67887
upperback 1.89704 -0.970714 4.27782
thorax -3.89804 -0.404894 7.31165
lowerneck -17.4111 2.98869 6.53958
upperneck 16.3752 4.8316 -12.1023
head 8.43858 1.48325 -4.58702
rclavicle 4.09496e-014 -1.59028e-015
rhumerus -27.673 -25.0874 -12.1243
rradius 39.783
rwrist -5.87882
rhand -20.1227 -0.149056
rfingers 7.12502
rthumb 6.22138 -30.0377
lclavicle 4.09496e-014 -1.59028e-015
lhumerus -28.6274 26.2921 27.2561
lradius 40.7958
lwrist 8.13985
lhand -17.3345 5.05555
lfingers 7.12502
lthumb 8.91258 34.8473
rfemur -34.6505 -3.11616 7.28067
rtibia 28.935
rfoot -3.88033 -7.00807
rtoes -11.3181
lfemur 5.89918 -5.47491 -21.3992
ltibia 14.1544
lfoot -11.51 16.3848
ltoes -18.9488
606
root 1.03338 17.6979 -12.7822 5.41838 -1.68106 3.81604
lowerback 10.6748 -0.495262 -4.62291
upperback 1.89993 -0.986949 4.38243
thorax -3.84 -0.415272 7.3915
lowerneck -17.3987 2.91651 6.45006
upperneck 16.4049 4.80368 -12.3189
head 8.44845 1.44277 -4.65171
rclavicle 2.8625e-014 1.27222e-014
rhumerus -27.883 -25.1175 -12.1059
rradius 39.7382
rwrist -5.88311
rhand -20.0975 -0.105173
rfingers 7.12502
rthumb 6.24573 -29.9931
lclavicle 2.8625e-014 1.27222e-014
lhumerus -28.5122 26.2381 27.001
lradius 40.9066
lwrist 8.15904
lhand -17.3704 5.03259
lfingers 7.12502
lthumb 8.87789 34.8258
rfemur -34.4735 -2.92533 6.99698
rtibia 29.2383
rfoot -3.65977 -6.70779
rtoes -11.209
lfemur 6.16681 -5.38027 -21.5237
ltibia 14.2472
lfoot -11.484 15.8957
ltoes -19.6944
607
root 1.00856 17.6851 -12.6826 5.37411 -1.39132 4.08739
lowerback 10.5784 -0.517399 -4.55461
upperback 1.9004 -1.00119 4.48716
thorax -3.78304 -0.424691 7.46396
lowerneck -17.3672 2.84034 6.35311
upperneck 16.4486 4.77547 -12.5408
head 8.45949 1.40147 -4.71739
rclavicle -1.98785e-015 3.02153e-014
rhumerus -28.1124 -25.1431 -12.087
rradius 39.7148
rwrist -5.92505
rhand -20.1049 -0.0912856
rfingers 7.12502
rthumb 6.23853 -29.9794
lclavicle -1.98785e-015 3.02153e-014
lhumerus -28.4091 26.1722 26.7212
lradius 41.0347
lwrist 8.17759
lhand -17.4125 5.02738
lfingers 7.12502
lthumb 8.83725 34.8223
rfemur -34.2495 -2.64275 6.67271
rtibia 29.671
rfoot -3.40024 -6.29652
rtoes -10.7757
lfemur 6.39049 -5.26394 -21.6355
ltibia 14.4919
lfoot -11.4611 15.4071
ltoes -20.4563
608
root 0.982351 17.6728 -12.5806 5.31415 -1.09412 4.375
lowerback 10.4788 -0.543297 -4.48411
upperback 1.89508 -1.02065 4.5834
thorax -3.72969 -0.436463 7.52662
lowerneck -17.2872 2.76316 6.25857
upperneck 16.4921 4.74912 -12.773
head 8.46225 1.36181 -4.78679
rclavicle 8.74653e-015 -3.33958e-014
rhumerus -28.3491 -25.1635 -12.0838
rradius 39.7089
rwrist -6.01647
rhand -20.1345 -0.0889756
rfingers 7.12502
rthumb 6.21001 -29.978
lclavicle 8.74653e-015 -3.33958e-014
lhumerus -28.3162 26.0981 26.411
lradius 41.1728
lwrist 8.21056
lhand -17.4791 5.03399
lfingers 7.12502
lthumb 8.77307 34.8316
rfemur -33.9994 -2.27043 6.28152
rtibia 30.1933
rfoot -3.15446 -5.81454
rtoes -10.1063
lfemur 6.55896 -5.14848 -21.7572
ltibia 14.8854
lfoot -11.4247 14.9229
ltoes -21.2157
609
root 0.954687 17.6623 -12.4766 5.23833 -0.788647 4.64691
lowerback 10.3712 -0.56987 -4.3788
upperback 1.88801 -1.03732 4.67717
thorax -3.67492 -0.447231 7.56565
lowerneck -17.1897 2.67722 6.14116
upperneck 16.5562 4.71655 -12.9922
head 8.46718 1.31914 -4.84907
rclavicle -1.94809e-014 3.33958e-014
rhumerus -28.6105 -25.2044 -12.0856
rradius 39.7142
rwrist -6.10895
rhand -20.2081 -0.106379
rfingers 7.12502
rthumb 6.13896 -29.9974
lclavicle -1.94809e-014 3.33958e-014
lhumerus -28.2256 26.0145 26.0837
lradius 41.331
lwrist 8.25282
lhand -17.5548 5.03915
lfingers 7.12502
lthumb 8.69994 34.8399
rfemur -33.7363 -1.80695 5.86703
rtibia 30.7689
rfoot -2.94994 -5.42835
rtoes -9.23869
lfemur 6.66784 -5.03619 -21.8521
ltibia 15.4353
lfoot -11.3599 14.4346
ltoes -21.9564
